{
  "accessors": [
    {
      "bufferView": 2,
      "componentType": 5126,
      "count": 23333,
      "max": [
        -2.269120931625366,
        -30.882352828979492,
        -2.0470058917999268
      ],
      "min": [
        -10.718693733215332,
        -39.09613037109375,
        -10.354486465454102
      ],
      "type": "VEC3"
    },
    {
      "bufferView": 2,
      "byteOffset": 279996,
      "componentType": 5126,
      "count": 23333,
      "max": [
        0.9999440908432007,
        0.999970555305481,
        0.9999678134918213
      ],
      "min": [
        -0.9990647435188293,
        -0.9997941255569458,
        -0.9999865889549255
      ],
      "type": "VEC3"
    },
    {
      "bufferView": 3,
      "componentType": 5126,
      "count": 23333,
      "max": [
        0.7529410123825073,
        0.7529410123825073,
        0.7529410123825073,
        1.0
      ],
      "min": [
        0.7529410123825073,
        0.7529410123825073,
        0.7529410123825073,
        1.0
      ],
      "type": "VEC4"
    },
    {
      "bufferView": 1,
      "componentType": 5126,
      "count": 23333,
      "max": [
        0.9800480008125305,
        0.9979889988899231
      ],
      "min": [
        0.00216599996201694,
        0.04087600111961365
      ],
      "type": "VEC2"
    },
    {
      "bufferView": 0,
      "componentType": 5125,
      "count": 135720,
      "type": "SCALAR"
    },
    {
      "bufferView": 2,
      "byteOffset": 559992,
      "componentType": 5126,
      "count": 7914,
      "max": [
        -4.145050048828125,
        -28.65572738647461,
        -2.4614970684051514
      ],
      "min": [
        -11.300058364868164,
        -38.26588439941406,
        -9.67189884185791
      ],
      "type": "VEC3"
    },
    {
      "bufferView": 2,
      "byteOffset": 654960,
      "componentType": 5126,
      "count": 7914,
      "max": [
        0.9997995495796204,
        0.9993738532066345,
        0.9999978542327881
      ],
      "min": [
        -0.994963526725769,
        -0.9999753832817078,
        -0.9986738562583923
      ],
      "type": "VEC3"
    },
    {
      "bufferView": 3,
      "byteOffset": 373328,
      "componentType": 5126,
      "count": 7914,
      "max": [
        0.7529410123825073,
        0.7529410123825073,
        0.7529410123825073,
        1.0
      ],
      "min": [
        0.7529410123825073,
        0.7529410123825073,
        0.7529410123825073,
        1.0
      ],
      "type": "VEC4"
    },
    {
      "bufferView": 1,
      "byteOffset": 186664,
      "componentType": 5126,
      "count": 7914,
      "max": [
        0.9375259876251221,
        0.9978989958763123
      ],
      "min": [
        0.0020779999904334545,
        0.13795800507068634
      ],
      "type": "VEC2"
    },
    {
      "bufferView": 0,
      "byteOffset": 542880,
      "componentType": 5125,
      "count": 45807,
      "type": "SCALAR"
    },
    {
      "bufferView": 2,
      "byteOffset": 749928,
      "componentType": 5126,
      "count": 7967,
      "max": [
        -2.1656270027160645,
        -28.669885635375977,
        -2.189462900161743
      ],
      "min": [
        -10.069982528686523,
        -39.177268981933594,
        -10.156708717346191
      ],
      "type": "VEC3"
    },
    {
      "bufferView": 2,
      "byteOffset": 845532,
      "componentType": 5126,
      "count": 7967,
      "max": [
        0.999968945980072,
        0.9998456239700317,
        0.9999405741691589
      ],
      "min": [
        -0.9937188029289246,
        -0.9996298551559448,
        -0.9673052430152893
      ],
      "type": "VEC3"
    },
    {
      "bufferView": 3,
      "byteOffset": 499952,
      "componentType": 5126,
      "count": 7967,
      "max": [
        0.7529410123825073,
        0.7529410123825073,
        0.7529410123825073,
        1.0
      ],
      "min": [
        0.7529410123825073,
        0.7529410123825073,
        0.7529410123825073,
        1.0
      ],
      "type": "VEC4"
    },
    {
      "bufferView": 1,
      "byteOffset": 249976,
      "componentType": 5126,
      "count": 7967,
      "max": [
        0.9078919887542725,
        0.9250779747962952
      ],
      "min": [
        0.00203000009059906,
        0.022919999435544014
      ],
      "type": "VEC2"
    },
    {
      "bufferView": 0,
      "byteOffset": 726108,
      "componentType": 5125,
      "count": 45279,
      "type": "SCALAR"
    },
    {
      "bufferView": 2,
      "byteOffset": 941136,
      "componentType": 5126,
      "count": 5096,
      "max": [
        -2.1656270027160645,
        -28.868030548095703,
        -2.0158259868621826
      ],
      "min": [
        -8.858039855957031,
        -39.06479263305664,
        -9.702588081359863
      ],
      "type": "VEC3"
    },
    {
      "bufferView": 2,
      "byteOffset": 1002288,
      "componentType": 5126,
      "count": 5096,
      "max": [
        0.9997466206550598,
        0.9999298453330994,
        0.9997948408126831
      ],
      "min": [
        -0.9961622953414917,
        -0.9998745918273926,
        -0.9994100332260132
      ],
      "type": "VEC3"
    },
    {
      "bufferView": 3,
      "byteOffset": 627424,
      "componentType": 5126,
      "count": 5096,
      "max": [
        0.7529410123825073,
        0.7529410123825073,
        0.7529410123825073,
        1.0
      ],
      "min": [
        0.7529410123825073,
        0.7529410123825073,
        0.7529410123825073,
        1.0
      ],
      "type": "VEC4"
    },
    {
      "bufferView": 1,
      "byteOffset": 313712,
      "componentType": 5126,
      "count": 5096,
      "max": [
        0.990077018737793,
        0.9959110021591187
      ],
      "min": [
        0.0039809998124837875,
        0.030112000182271004
      ],
      "type": "VEC2"
    },
    {
      "bufferView": 0,
      "byteOffset": 907224,
      "componentType": 5125,
      "count": 27879,
      "type": "SCALAR"
    },
    {
      "bufferView": 2,
      "byteOffset": 1063440,
      "componentType": 5126,
      "count": 92,
      "max": [
        -4.317257881164551,
        -28.720882415771484,
        -2.6485989093780518
      ],
      "min": [
        -7.996315002441406,
        -36.17805480957031,
        -9.684050559997559
      ],
      "type": "VEC3"
    },
    {
      "bufferView": 2,
      "byteOffset": 1064544,
      "componentType": 5126,
      "count": 92,
      "max": [
        -0.01726669631898403,
        0.9613555073738098,
        0.9673651456832886
      ],
      "min": [
        -0.9966074824333191,
        -0.5198609232902527,
        -0.9586691856384277
      ],
      "type": "VEC3"
    },
    {
      "bufferView": 3,
      "byteOffset": 708960,
      "componentType": 5126,
      "count": 92,
      "max": [
        0.7529410123825073,
        0.7529410123825073,
        0.7529410123825073,
        1.0
      ],
      "min": [
        0.7529410123825073,
        0.7529410123825073,
        0.7529410123825073,
        1.0
      ],
      "type": "VEC4"
    },
    {
      "bufferView": 1,
      "byteOffset": 354480,
      "componentType": 5126,
      "count": 92,
      "max": [
        0.19045700132846832,
        0.8246700167655945
      ],
      "min": [
        0.19045700132846832,
        0.8246700167655945
      ],
      "type": "VEC2"
    },
    {
      "bufferView": 0,
      "byteOffset": 1018740,
      "componentType": 5125,
      "count": 252,
      "type": "SCALAR"
    }
  ],
  "asset": {
    "extras": {
      "author": "alban (https://sketchfab.com/alban)",
      "license": "CC-BY-4.0 (http://creativecommons.org/licenses/by/4.0/)",
      "source": "https://sketchfab.com/3d-models/elephant-skull-07e0fcf32a654272bb0d52b79e745df9",
      "title": "Elephant skull"
    },
    "generator": "Sketchfab-12.65.0",
    "version": "2.0"
  },
  "bufferViews": [
    {
      "buffer": 0,
      "byteLength": 1019748,
      "name": "floatBufferViews",
      "target": 34963
    },
    {
      "buffer": 0,
      "byteLength": 355216,
      "byteOffset": 1019748,
      "byteStride": 8,
      "name": "floatBufferViews",
      "target": 34962
    },
    {
      "buffer": 0,
      "byteLength": 1065648,
      "byteOffset": 1374964,
      "byteStride": 12,
      "name": "floatBufferViews",
      "target": 34962
    },
    {
      "buffer": 0,
      "byteLength": 710432,
      "byteOffset": 2440612,
      "byteStride": 16,
      "name": "floatBufferViews",
      "target": 34962
    }
  ],
  "buffers": [
    {
      "byteLength": 3151044,
      "uri": "scene.bin"
    }
  ],
  "images": [
    {
      "uri": "textures/material_0_baseColor.jpeg"
    },
    {
      "uri": "textures/material_1_baseColor.jpeg"
    },
    {
      "uri": "textures/material_2_baseColor.jpeg"
    },
    {
      "uri": "textures/material_3_baseColor.jpeg"
    }
  ],
  "materials": [
    {
      "doubleSided": true,
      "name": "material_0",
      "pbrMetallicRoughness": {
        "baseColorTexture": {
          "index": 0
        },
        "metallicFactor": 0.0,
        "roughnessFactor": 0.6
      }
    },
    {
      "doubleSided": true,
      "name": "material_1",
      "pbrMetallicRoughness": {
        "baseColorTexture": {
          "index": 1
        },
        "metallicFactor": 0.0,
        "roughnessFactor": 0.6
      }
    },
    {
      "doubleSided": true,
      "name": "material_2",
      "pbrMetallicRoughness": {
        "baseColorTexture": {
          "index": 2
        },
        "metallicFactor": 0.0,
        "roughnessFactor": 0.6
      }
    },
    {
      "doubleSided": true,
      "name": "material_3",
      "pbrMetallicRoughness": {
        "baseColorTexture": {
          "index": 3
        },
        "metallicFactor": 0.0,
        "roughnessFactor": 0.6
      }
    },
    {
      "doubleSided": true,
      "name": "material_4",
      "pbrMetallicRoughness": {
        "baseColorFactor": [
          0.501961,
          0.501961,
          0.501961,
          1.0
        ],
        "metallicFactor": 0.0,
        "roughnessFactor": 0.6
      }
    }
  ],
  "meshes": [
    {
      "name": "Object_0",
      "primitives": [
        {
          "attributes": {
            "COLOR_0": 2,
            "NORMAL": 1,
            "POSITION": 0,
            "TEXCOORD_0": 3
          },
          "indices": 4,
          "material": 0,
          "mode": 4
        }
      ]
    },
    {
      "name": "Object_1",
      "primitives": [
        {
          "attributes": {
            "COLOR_0": 7,
            "NORMAL": 6,
            "POSITION": 5,
            "TEXCOORD_0": 8
          },
          "indices": 9,
          "material": 1,
          "mode": 4
        }
      ]
    },
    {
      "name": "Object_2",
      "primitives": [
        {
          "attributes": {
            "COLOR_0": 12,
            "NORMAL": 11,
            "POSITION": 10,
            "TEXCOORD_0": 13
          },
          "indices": 14,
          "material": 2,
          "mode": 4
        }
      ]
    },
    {
      "name": "Object_3",
      "primitives": [
        {
          "attributes": {
            "COLOR_0": 17,
            "NORMAL": 16,
            "POSITION": 15,
            "TEXCOORD_0": 18
          },
          "indices": 19,
          "material": 3,
          "mode": 4
        }
      ]
    },
    {
      "name": "Object_4",
      "primitives": [
        {
          "attributes": {
            "COLOR_0": 22,
            "NORMAL": 21,
            "POSITION": 20,
            "TEXCOORD_0": 23
          },
          "indices": 24,
          "material": 4,
          "mode": 4
        }
      ]
    }
  ],
  "nodes": [
    {
      "children": [
        1
      ],
      "matrix": [
        0.0,
        2.220446049250313e-16,
        -1.0,
        0.0,
        0.13371673226356506,
        0.991019606590271,
        2.2005055701829668e-16,
        0.0,
        0.991019606590271,
        -0.13371673226356506,
        -2.969107898732949e-17,
        0.0,
        4.184247016906738,
        26.91155815124511,
        27.708536148071296,
        1.0
      ],
      "name": "Sketchfab_model"
    },
    {
      "children": [
        2,
        3,
        4,
        5,
        6
      ],
      "name": "mesh.obj.cleaner"
    },
    {
      "mesh": 0,
      "name": "Object_2"
    },
    {
      "mesh": 1,
      "name": "Object_3"
    },
    {
      "mesh": 2,
      "name": "Object_4"
    },
    {
      "mesh": 3,
      "name": "Object_5"
    },
    {
      "mesh": 4,
      "name": "Object_6"
    }
  ],
  "samplers": [
    {
      "magFilter": 9729,
      "minFilter": 9987,
      "wrapS": 10497,
      "wrapT": 10497
    }
  ],
  "scene": 0,
  "scenes": [
    {
      "name": "Sketchfab_Scene",
      "nodes": [
        0
      ]
    }
  ],
  "textures": [
    {
      "sampler": 0,
      "source": 0
    },
    {
      "sampler": 0,
      "source": 1
    },
    {
      "sampler": 0,
      "source": 2
    },
    {
      "sampler": 0,
      "source": 3
    }
  ]
}
