{
  "accessors": [
    {
      "bufferView": 2,
      "componentType": 5126,
      "count": 4254,
      "max": [
        17.063949584960938,
        15.166000366210938,
        24.6481990814209
      ],
      "min": [
        -16.24224853515625,
        -12.708900451660156,
        0.5994269847869873
      ],
      "type": "VEC3"
    },
    {
      "bufferView": 2,
      "byteOffset": 51048,
      "componentType": 5126,
      "count": 4254,
      "max": [
        1.0,
        1.0,
        1.0
      ],
      "min": [
        -1.0,
        -1.0,
        -1.0
      ],
      "type": "VEC3"
    },
    {
      "bufferView": 3,
      "componentType": 5126,
      "count": 4254,
      "max": [
        1.0,
        1.0,
        1.0,
        1.0
      ],
      "min": [
        -1.0,
        -1.0,
        -1.0,
        1.0
      ],
      "type": "VEC4"
    },
    {
      "bufferView": 1,
      "componentType": 5126,
      "count": 4254,
      "max": [
        0.9690970182418823,
        0.9900000095367432
      ],
      "min": [
        0.009999999776482582,
        0.0021279999054968357
      ],
      "type": "VEC2"
    },
    {
      "bufferView": 0,
      "componentType": 5125,
      "count": 9552,
      "type": "SCALAR"
    },
    {
      "bufferView": 2,
      "byteOffset": 102096,
      "componentType": 5126,
      "count": 4828,
      "max": [
        13.393753051757813,
        15.064200401306152,
        24.6481990814209
      ],
      "min": [
        -16.146747589111328,
        -15.51930046081543,
        0.9549840092658997
      ],
      "type": "VEC3"
    },
    {
      "bufferView": 2,
      "byteOffset": 160032,
      "componentType": 5126,
      "count": 4828,
      "max": [
        1.0,
        1.0,
        1.0
      ],
      "min": [
        -1.0,
        -1.0,
        -1.0
      ],
      "type": "VEC3"
    },
    {
      "bufferView": 3,
      "byteOffset": 68064,
      "componentType": 5126,
      "count": 4828,
      "max": [
        1.0,
        1.0,
        1.0,
        1.0
      ],
      "min": [
        -1.0,
        -1.0,
        -1.0,
        1.0
      ],
      "type": "VEC4"
    },
    {
      "bufferView": 1,
      "byteOffset": 34032,
      "componentType": 5126,
      "count": 4828,
      "max": [
        0.9846349954605103,
        0.9900000095367432
      ],
      "min": [
        0.009999999776482582,
        0.020729999989271164
      ],
      "type": "VEC2"
    },
    {
      "bufferView": 0,
      "byteOffset": 38208,
      "componentType": 5125,
      "count": 10014,
      "type": "SCALAR"
    },
    {
      "bufferView": 2,
      "byteOffset": 217968,
      "componentType": 5126,
      "count": 19371,
      "max": [
        17.063949584960938,
        15.440199851989746,
        24.6481990814209
      ],
      "min": [
        -16.534944534301758,
        -15.51930046081543,
        0.57573401927948
      ],
      "type": "VEC3"
    },
    {
      "bufferView": 2,
      "byteOffset": 450420,
      "componentType": 5126,
      "count": 19371,
      "max": [
        1.0,
        1.0,
        1.0
      ],
      "min": [
        -1.0,
        -1.0,
        -1.0
      ],
      "type": "VEC3"
    },
    {
      "bufferView": 3,
      "byteOffset": 145312,
      "componentType": 5126,
      "count": 19371,
      "max": [
        1.0,
        1.0,
        1.0,
        1.0
      ],
      "min": [
        -1.0,
        -1.0,
        -1.0,
        -1.0
      ],
      "type": "VEC4"
    },
    {
      "bufferView": 1,
      "byteOffset": 72656,
      "componentType": 5126,
      "count": 19371,
      "max": [
        0.9631749987602234,
        0.9900000095367432
      ],
      "min": [
        0.009999999776482582,
        0.03801700100302696
      ],
      "type": "VEC2"
    },
    {
      "bufferView": 0,
      "byteOffset": 78264,
      "componentType": 5125,
      "count": 56151,
      "type": "SCALAR"
    },
    {
      "bufferView": 2,
      "byteOffset": 682872,
      "componentType": 5126,
      "count": 65532,
      "max": [
        17.063949584960938,
        15.51930046081543,
        24.72130012512207
      ],
      "min": [
        -17.063945770263672,
        -15.51930046081543,
        0.48823800683021545
      ],
      "type": "VEC3"
    },
    {
      "bufferView": 2,
      "byteOffset": 1469256,
      "componentType": 5126,
      "count": 65532,
      "max": [
        1.0,
        1.0,
        1.0
      ],
      "min": [
        -1.0,
        -1.0,
        -1.0
      ],
      "type": "VEC3"
    },
    {
      "bufferView": 3,
      "byteOffset": 455248,
      "componentType": 5126,
      "count": 65532,
      "max": [
        1.0,
        1.0,
        1.0,
        1.0
      ],
      "min": [
        -1.0,
        -1.0,
        -1.0,
        -1.0
      ],
      "type": "VEC4"
    },
    {
      "bufferView": 1,
      "byteOffset": 227624,
      "componentType": 5126,
      "count": 65532,
      "max": [
        0.972117006778717,
        0.9900000095367432
      ],
      "min": [
        0.009999999776482582,
        0.014173000119626522
      ],
      "type": "VEC2"
    },
    {
      "bufferView": 0,
      "byteOffset": 302868,
      "componentType": 5125,
      "count": 242784,
      "type": "SCALAR"
    },
    {
      "bufferView": 2,
      "byteOffset": 2255640,
      "componentType": 5126,
      "count": 16663,
      "max": [
        -12.6949462890625,
        -6.136320114135742,
        7.155529022216797
      ],
      "min": [
        -16.271347045898438,
        -9.659299850463867,
        5.567709922790527
      ],
      "type": "VEC3"
    },
    {
      "bufferView": 2,
      "byteOffset": 2455596,
      "componentType": 5126,
      "count": 16663,
      "max": [
        0.9997909069061279,
        0.9999323487281799,
        0.9998637437820435
      ],
      "min": [
        -0.9999930262565613,
        -0.9999982118606567,
        -0.999883770942688
      ],
      "type": "VEC3"
    },
    {
      "bufferView": 3,
      "byteOffset": 1503760,
      "componentType": 5126,
      "count": 16663,
      "max": [
        0.9999926686286926,
        0.9999945163726807,
        0.9999992847442627,
        1.0
      ],
      "min": [
        -0.9999982118606567,
        -0.9999992251396179,
        -0.9999995231628418,
        1.0
      ],
      "type": "VEC4"
    },
    {
      "bufferView": 1,
      "byteOffset": 751880,
      "componentType": 5126,
      "count": 16663,
      "max": [
        0.9369459748268127,
        0.9876160025596619
      ],
      "min": [
        0.02847900055348873,
        0.06364999711513519
      ],
      "type": "VEC2"
    },
    {
      "bufferView": 0,
      "byteOffset": 1274004,
      "componentType": 5125,
      "count": 67935,
      "type": "SCALAR"
    }
  ],
  "asset": {
    "extras": {
      "author": "Francesco Coldesina (https://sketchfab.com/topfrank2013)",
      "license": "CC-BY-4.0 (http://creativecommons.org/licenses/by/4.0/)",
      "source": "https://sketchfab.com/3d-models/cutter-machine-ea44a8bafd6e4beb87e3258e5e308007",
      "title": "Cutter Machine"
    },
    "generator": "Sketchfab-12.65.0",
    "version": "2.0"
  },
  "bufferViews": [
    {
      "buffer": 0,
      "byteLength": 1545744,
      "name": "floatBufferViews",
      "target": 34963
    },
    {
      "buffer": 0,
      "byteLength": 885184,
      "byteOffset": 1545744,
      "byteStride": 8,
      "name": "floatBufferViews",
      "target": 34962
    },
    {
      "buffer": 0,
      "byteLength": 2655552,
      "byteOffset": 2430928,
      "byteStride": 12,
      "name": "floatBufferViews",
      "target": 34962
    },
    {
      "buffer": 0,
      "byteLength": 1770368,
      "byteOffset": 5086480,
      "byteStride": 16,
      "name": "floatBufferViews",
      "target": 34962
    }
  ],
  "buffers": [
    {
      "byteLength": 6856848,
      "uri": "scene.bin"
    }
  ],
  "extensionsRequired": [
    "KHR_materials_pbrSpecularGlossiness"
  ],
  "extensionsUsed": [
    "KHR_materials_pbrSpecularGlossiness"
  ],
  "images": [
    {
      "uri": "textures/MM_01_diffuse.png"
    },
    {
      "uri": "textures/MM_01_specularGlossiness.png"
    },
    {
      "uri": "textures/MM_01_normal.png"
    },
    {
      "uri": "textures/MM_01_occlusion.png"
    }
  ],
  "materials": [
    {
      "alphaMode": "BLEND",
      "doubleSided": true,
      "extensions": {
        "KHR_materials_pbrSpecularGlossiness": {
          "diffuseFactor": [
            1.0,
            1.0,
            1.0,
            1.0
          ],
          "diffuseTexture": {
            "index": 0
          },
          "glossinessFactor": 1.0,
          "specularFactor": [
            1.0,
            1.0,
            1.0
          ],
          "specularGlossinessTexture": {
            "index": 1
          }
        }
      },
      "name": "MM_01",
      "normalTexture": {
        "index": 2
      },
      "occlusionTexture": {
        "index": 3
      }
    }
  ],
  "meshes": [
    {
      "name": "Object_0",
      "primitives": [
        {
          "attributes": {
            "NORMAL": 1,
            "POSITION": 0,
            "TANGENT": 2,
            "TEXCOORD_0": 3
          },
          "indices": 4,
          "material": 0,
          "mode": 4
        }
      ]
    },
    {
      "name": "Object_1",
      "primitives": [
        {
          "attributes": {
            "NORMAL": 6,
            "POSITION": 5,
            "TANGENT": 7,
            "TEXCOORD_0": 8
          },
          "indices": 9,
          "material": 0,
          "mode": 4
        }
      ]
    },
    {
      "name": "Object_2",
      "primitives": [
        {
          "attributes": {
            "NORMAL": 11,
            "POSITION": 10,
            "TANGENT": 12,
            "TEXCOORD_0": 13
          },
          "indices": 14,
          "material": 0,
          "mode": 4
        }
      ]
    },
    {
      "name": "Object_3",
      "primitives": [
        {
          "attributes": {
            "NORMAL": 16,
            "POSITION": 15,
            "TANGENT": 17,
            "TEXCOORD_0": 18
          },
          "indices": 19,
          "material": 0,
          "mode": 4
        }
      ]
    },
    {
      "name": "Object_4",
      "primitives": [
        {
          "attributes": {
            "NORMAL": 21,
            "POSITION": 20,
            "TANGENT": 22,
            "TEXCOORD_0": 23
          },
          "indices": 24,
          "material": 0,
          "mode": 4
        }
      ]
    }
  ],
  "nodes": [
    {
      "children": [
        1
      ],
      "matrix": [
        1.0,
        0.0,
        0.0,
        0.0,
        0.0,
        2.220446049250313e-16,
        -1.0,
        0.0,
        0.0,
        1.0,
        2.220446049250313e-16,
        0.0,
        0.0,
        0.0,
        0.0,
        1.0
      ],
      "name": "Sketchfab_model"
    },
    {
      "children": [
        2,
        3,
        4,
        5,
        6
      ],
      "name": "MM01.obj.cleaner.materialmerger.gles"
    },
    {
      "mesh": 0,
      "name": "Object_2"
    },
    {
      "mesh": 1,
      "name": "Object_3"
    },
    {
      "mesh": 2,
      "name": "Object_4"
    },
    {
      "mesh": 3,
      "name": "Object_5"
    },
    {
      "mesh": 4,
      "name": "Object_6"
    }
  ],
  "samplers": [
    {
      "magFilter": 9729,
      "minFilter": 9987,
      "wrapS": 10497,
      "wrapT": 10497
    }
  ],
  "scene": 0,
  "scenes": [
    {
      "name": "Sketchfab_Scene",
      "nodes": [
        0
      ]
    }
  ],
  "textures": [
    {
      "sampler": 0,
      "source": 0
    },
    {
      "sampler": 0,
      "source": 1
    },
    {
      "sampler": 0,
      "source": 2
    },
    {
      "sampler": 0,
      "source": 3
    }
  ]
}
