{
  "accessors": [
    {
      "bufferView": 2,
      "componentType": 5126,
      "count": 65532,
      "max": [
        1.6149678230285645,
        1.2564239501953125,
        3.247434139251709
      ],
      "min": [
        -1.15091872215271,
        -1.327519416809082,
        -3.79884672164917
      ],
      "type": "VEC3"
    },
    {
      "bufferView": 2,
      "byteOffset": 786384,
      "componentType": 5126,
      "count": 65532,
      "max": [
        0.9999971985816956,
        0.9999986290931702,
        0.9999934434890747
      ],
      "min": [
        -0.999907910823822,
        -0.9974760413169861,
        -0.9999998211860657
      ],
      "type": "VEC3"
    },
    {
      "bufferView": 1,
      "componentType": 5126,
      "count": 65532,
      "max": [
        0.9872018098831177,
        0.9872097969055176
      ],
      "min": [
        0.027467230334877968,
        0.0023468732833862305
      ],
      "type": "VEC2"
    },
    {
      "bufferView": 1,
      "byteOffset": 524256,
      "componentType": 5126,
      "count": 65532,
      "max": [
        0.9872018098831177,
        0.9872097969055176
      ],
      "min": [
        0.027467230334877968,
        0.0023468732833862305
      ],
      "type": "VEC2"
    },
    {
      "bufferView": 1,
      "byteOffset": 1048512,
      "componentType": 5126,
      "count": 65532,
      "max": [
        0.9872018098831177,
        0.9872097969055176
      ],
      "min": [
        0.027467230334877968,
        0.0023468732833862305
      ],
      "type": "VEC2"
    },
    {
      "bufferView": 0,
      "componentType": 5125,
      "count": 65532,
      "type": "SCALAR"
    },
    {
      "bufferView": 2,
      "byteOffset": 1572768,
      "componentType": 5126,
      "count": 65532,
      "max": [
        1.2016918659210205,
        1.243499517440796,
        3.2637853622436523
      ],
      "min": [
        -1.664337396621704,
        -1.3003830909729004,
        -3.142425537109375
      ],
      "type": "VEC3"
    },
    {
      "bufferView": 2,
      "byteOffset": 2359152,
      "componentType": 5126,
      "count": 65532,
      "max": [
        0.9999914169311523,
        0.9999979734420776,
        0.9999996423721313
      ],
      "min": [
        -0.9999973177909851,
        -0.9999376535415649,
        -0.9999913573265076
      ],
      "type": "VEC3"
    },
    {
      "bufferView": 1,
      "byteOffset": 1572768,
      "componentType": 5126,
      "count": 65532,
      "max": [
        0.9999043941497803,
        0.9974998831748962
      ],
      "min": [
        6.863201997475699e-05,
        7.444620132446289e-05
      ],
      "type": "VEC2"
    },
    {
      "bufferView": 1,
      "byteOffset": 2097024,
      "componentType": 5126,
      "count": 65532,
      "max": [
        0.9999043941497803,
        0.9974998831748962
      ],
      "min": [
        6.863201997475699e-05,
        7.444620132446289e-05
      ],
      "type": "VEC2"
    },
    {
      "bufferView": 1,
      "byteOffset": 2621280,
      "componentType": 5126,
      "count": 65532,
      "max": [
        0.9999043941497803,
        0.9974998831748962
      ],
      "min": [
        6.863201997475699e-05,
        7.444620132446289e-05
      ],
      "type": "VEC2"
    },
    {
      "bufferView": 0,
      "byteOffset": 262128,
      "componentType": 5125,
      "count": 65532,
      "type": "SCALAR"
    },
    {
      "bufferView": 2,
      "byteOffset": 3145536,
      "componentType": 5126,
      "count": 65532,
      "max": [
        1.4895708560943604,
        1.3302240371704102,
        3.238509178161621
      ],
      "min": [
        -1.6642855405807495,
        -1.328139066696167,
        -3.798835039138794
      ],
      "type": "VEC3"
    },
    {
      "bufferView": 2,
      "byteOffset": 3931920,
      "componentType": 5126,
      "count": 65532,
      "max": [
        0.999998152256012,
        0.9999949336051941,
        0.9999931454658508
      ],
      "min": [
        -0.999997079372406,
        -0.9999938011169434,
        -0.9999659061431885
      ],
      "type": "VEC3"
    },
    {
      "bufferView": 1,
      "byteOffset": 3145536,
      "componentType": 5126,
      "count": 65532,
      "max": [
        0.999999463558197,
        0.9977474808692932
      ],
      "min": [
        2.7230500563746318e-05,
        0.0008594393730163574
      ],
      "type": "VEC2"
    },
    {
      "bufferView": 1,
      "byteOffset": 3669792,
      "componentType": 5126,
      "count": 65532,
      "max": [
        0.999999463558197,
        0.9977474808692932
      ],
      "min": [
        2.7230500563746318e-05,
        0.0008594393730163574
      ],
      "type": "VEC2"
    },
    {
      "bufferView": 1,
      "byteOffset": 4194048,
      "componentType": 5126,
      "count": 65532,
      "max": [
        0.999999463558197,
        0.9977474808692932
      ],
      "min": [
        2.7230500563746318e-05,
        0.0008594393730163574
      ],
      "type": "VEC2"
    },
    {
      "bufferView": 0,
      "byteOffset": 524256,
      "componentType": 5125,
      "count": 65532,
      "type": "SCALAR"
    },
    {
      "bufferView": 2,
      "byteOffset": 4718304,
      "componentType": 5126,
      "count": 65532,
      "max": [
        1.6150416135787964,
        1.3016026020050049,
        2.8954217433929443
      ],
      "min": [
        -1.6650481224060059,
        -1.3260042667388916,
        -3.798835039138794
      ],
      "type": "VEC3"
    },
    {
      "bufferView": 2,
      "byteOffset": 5504688,
      "componentType": 5126,
      "count": 65532,
      "max": [
        0.9999893307685852,
        0.9999967217445374,
        0.9996253848075867
      ],
      "min": [
        -0.999991774559021,
        -0.9999942779541016,
        -0.9999101161956787
      ],
      "type": "VEC3"
    },
    {
      "bufferView": 1,
      "byteOffset": 4718304,
      "componentType": 5126,
      "count": 65532,
      "max": [
        0.9973970055580139,
        0.9976412057876587
      ],
      "min": [
        0.0015704245306551456,
        1.2814998626708984e-05
      ],
      "type": "VEC2"
    },
    {
      "bufferView": 1,
      "byteOffset": 5242560,
      "componentType": 5126,
      "count": 65532,
      "max": [
        0.9973970055580139,
        0.9976412057876587
      ],
      "min": [
        0.0015704245306551456,
        1.2814998626708984e-05
      ],
      "type": "VEC2"
    },
    {
      "bufferView": 1,
      "byteOffset": 5766816,
      "componentType": 5126,
      "count": 65532,
      "max": [
        0.9973970055580139,
        0.9976412057876587
      ],
      "min": [
        0.0015704245306551456,
        1.2814998626708984e-05
      ],
      "type": "VEC2"
    },
    {
      "bufferView": 0,
      "byteOffset": 786384,
      "componentType": 5125,
      "count": 65532,
      "type": "SCALAR"
    },
    {
      "bufferView": 2,
      "byteOffset": 6291072,
      "componentType": 5126,
      "count": 16077,
      "max": [
        0.733434796333313,
        1.3493211269378662,
        3.2698755264282227
      ],
      "min": [
        -1.6624624729156494,
        -1.2752313613891602,
        -2.4625706672668457
      ],
      "type": "VEC3"
    },
    {
      "bufferView": 2,
      "byteOffset": 6483996,
      "componentType": 5126,
      "count": 16077,
      "max": [
        0.9999887347221375,
        0.9999980926513672,
        0.9999276399612427
      ],
      "min": [
        -0.9999969005584717,
        -0.9977208375930786,
        -0.9991083741188049
      ],
      "type": "VEC3"
    },
    {
      "bufferView": 1,
      "byteOffset": 6291072,
      "componentType": 5126,
      "count": 16077,
      "max": [
        0.9969962239265442,
        0.9976359009742737
      ],
      "min": [
        0.0025317631661891937,
        0.0010085105895996094
      ],
      "type": "VEC2"
    },
    {
      "bufferView": 1,
      "byteOffset": 6419688,
      "componentType": 5126,
      "count": 16077,
      "max": [
        0.9969962239265442,
        0.9976359009742737
      ],
      "min": [
        0.0025317631661891937,
        0.0010085105895996094
      ],
      "type": "VEC2"
    },
    {
      "bufferView": 1,
      "byteOffset": 6548304,
      "componentType": 5126,
      "count": 16077,
      "max": [
        0.9969962239265442,
        0.9976359009742737
      ],
      "min": [
        0.0025317631661891937,
        0.0010085105895996094
      ],
      "type": "VEC2"
    },
    {
      "bufferView": 0,
      "byteOffset": 1048512,
      "componentType": 5125,
      "count": 16077,
      "type": "SCALAR"
    }
  ],
  "asset": {
    "extras": {
      "author": "uttamg911 (https://sketchfab.com/uttamg911)",
      "license": "CC-BY-4.0 (http://creativecommons.org/licenses/by/4.0/)",
      "source": "https://sketchfab.com/3d-models/day-151-jcb-telehandler-94144b0a51fd409380ecc20503e02973",
      "title": "Day 151: JCB Telehandler"
    },
    "generator": "Sketchfab-12.67.0",
    "version": "2.0"
  },
  "bufferViews": [
    {
      "buffer": 0,
      "byteLength": 1112820,
      "name": "floatBufferViews",
      "target": 34963
    },
    {
      "buffer": 0,
      "byteLength": 6676920,
      "byteOffset": 1112820,
      "byteStride": 8,
      "name": "floatBufferViews",
      "target": 34962
    },
    {
      "buffer": 0,
      "byteLength": 6676920,
      "byteOffset": 7789740,
      "byteStride": 12,
      "name": "floatBufferViews",
      "target": 34962
    }
  ],
  "buffers": [
    {
      "byteLength": 14466660,
      "uri": "scene.bin"
    }
  ],
  "images": [
    {
      "uri": "textures/Material_0_baseColor.jpeg"
    }
  ],
  "materials": [
    {
      "name": "Material_0",
      "pbrMetallicRoughness": {
        "baseColorTexture": {
          "index": 0
        },
        "metallicFactor": 0.0
      }
    }
  ],
  "meshes": [
    {
      "name": "Object_0",
      "primitives": [
        {
          "attributes": {
            "NORMAL": 1,
            "POSITION": 0,
            "TEXCOORD_0": 2,
            "TEXCOORD_1": 3,
            "TEXCOORD_2": 4
          },
          "indices": 5,
          "material": 0,
          "mode": 4
        }
      ]
    },
    {
      "name": "Object_1",
      "primitives": [
        {
          "attributes": {
            "NORMAL": 7,
            "POSITION": 6,
            "TEXCOORD_0": 8,
            "TEXCOORD_1": 9,
            "TEXCOORD_2": 10
          },
          "indices": 11,
          "material": 0,
          "mode": 4
        }
      ]
    },
    {
      "name": "Object_2",
      "primitives": [
        {
          "attributes": {
            "NORMAL": 13,
            "POSITION": 12,
            "TEXCOORD_0": 14,
            "TEXCOORD_1": 15,
            "TEXCOORD_2": 16
          },
          "indices": 17,
          "material": 0,
          "mode": 4
        }
      ]
    },
    {
      "name": "Object_3",
      "primitives": [
        {
          "attributes": {
            "NORMAL": 19,
            "POSITION": 18,
            "TEXCOORD_0": 20,
            "TEXCOORD_1": 21,
            "TEXCOORD_2": 22
          },
          "indices": 23,
          "material": 0,
          "mode": 4
        }
      ]
    },
    {
      "name": "Object_4",
      "primitives": [
        {
          "attributes": {
            "NORMAL": 25,
            "POSITION": 24,
            "TEXCOORD_0": 26,
            "TEXCOORD_1": 27,
            "TEXCOORD_2": 28
          },
          "indices": 29,
          "material": 0,
          "mode": 4
        }
      ]
    }
  ],
  "nodes": [
    {
      "children": [
        1
      ],
      "matrix": [
        1.0,
        0.0,
        0.0,
        0.0,
        0.0,
        2.220446049250313e-16,
        -1.0,
        0.0,
        0.0,
        1.0,
        2.220446049250313e-16,
        0.0,
        0.0,
        0.0,
        0.0,
        1.0
      ],
      "name": "Sketchfab_model"
    },
    {
      "children": [
        2
      ],
      "name": "root"
    },
    {
      "children": [
        3
      ],
      "matrix": [
        1.0,
        0.0,
        0.0,
        0.0,
        0.0,
        2.220446049250313e-16,
        1.0,
        0.0,
        0.0,
        -1.0,
        2.220446049250313e-16,
        0.0,
        0.0,
        0.0,
        0.0,
        1.0
      ],
      "name": "GLTF_SceneRootNode"
    },
    {
      "children": [
        4,
        5,
        6,
        7,
        8
      ],
      "name": "Mesh_0_0"
    },
    {
      "mesh": 0,
      "name": "Object_4"
    },
    {
      "mesh": 1,
      "name": "Object_5"
    },
    {
      "mesh": 2,
      "name": "Object_6"
    },
    {
      "mesh": 3,
      "name": "Object_7"
    },
    {
      "mesh": 4,
      "name": "Object_8"
    }
  ],
  "samplers": [
    {
      "magFilter": 9729,
      "minFilter": 9987,
      "wrapS": 10497,
      "wrapT": 10497
    }
  ],
  "scene": 0,
  "scenes": [
    {
      "name": "Sketchfab_Scene",
      "nodes": [
        0
      ]
    }
  ],
  "textures": [
    {
      "sampler": 0,
      "source": 0
    }
  ]
}
